<!-- icon666.com - MILLIONS vector ICONS FREE --><svg clip-rule="evenodd" fill-rule="evenodd" image-rendering="optimizeQuality" shape-rendering="geometricPrecision" text-rendering="geometricPrecision" viewBox="0 0 28444 28444" xmlns="http://www.w3.org/2000/svg"><g id="Layer_x0020_1"><path d="m15796 6702c940 196 1831 568 2630 1091l2446-1946 1727 1727-1946 2446c523 799 894 1688 1090 2630l3105 353v2443l-3105 353c-196 941-567 1831-1090 2630l1946 2445-1727 1727-2446-1946c-798 523-1689 894-2630 1090l-353 3104h-2443l-353-3104c-940-196-1831-568-2630-1091l-2446 1946-1727-1727 1946-2446c-523-799-894-1688-1090-2630l-3105-353v-2443l3105-353c196-941 567-1831 1090-2630l-1946-2445 1727-1727 2446 1946c798-523 1689-894 2630-1090l353-3104h2443zm-1574 2466c2791 0 5054 2263 5054 5054s-2267 5054-5054 5054c-2788 0-5054-2264-5054-5054 0-2791 2263-5054 5054-5054zm2834 8405c-231-908-899-1661-1772-2005-673 316-1450 316-2124 0-874 343-1540 1093-1772 2005 1634 1384 4033 1384 5668 0zm-1954-2658c580-319 946-927 946-1601 0-1009-818-1826-1826-1826-1009 0-1826 818-1826 1826 0 674 367 1282 946 1601 547 301 1213 301 1760 0z"></path></g></svg>